<?xml version="1.0" standalone="no"?>
<!DOCTYPE svg PUBLIC "-//W3C//DTD SVG 20010904//EN"
 "http://www.w3.org/TR/2001/REC-SVG-20010904/DTD/svg10.dtd">
<svg version="1.0" xmlns="http://www.w3.org/2000/svg"
 width="1024.000000pt" height="1024.000000pt" viewBox="0 0 1024.000000 1024.000000"
 preserveAspectRatio="xMidYMid meet">
<metadata>
Created by potrace 1.11, written by Peter Selinger 2001-2013
</metadata>
<g transform="translate(0.000000,1024.000000) scale(0.100000,-0.100000)"
fill="#000000" stroke="none">
<path d="M4726 9602 c-4 -7 -18 -12 -30 -12 -77 0 -239 -78 -325 -157 -53 -48
-136 -156 -129 -167 2 -2 -4 -12 -13 -22 -28 -33 -58 -139 -63 -227 -2 -32 -7
-61 -10 -64 -3 -3 -1 -13 4 -22 5 -10 5 -23 0 -31 -5 -8 -5 -21 0 -30 5 -9 5
-22 0 -30 -5 -8 -5 -21 0 -30 5 -9 5 -22 0 -30 -5 -8 -5 -21 0 -30 5 -9 5 -22
0 -30 -4 -7 -5 -20 -2 -29 8 -20 7 -63 -1 -84 -3 -9 -2 -19 3 -22 5 -3 6 -15
0 -29 -4 -12 -5 -29 0 -36 5 -7 5 -23 0 -35 -4 -11 -4 -28 1 -37 6 -10 6 -19
0 -22 -6 -4 -6 -18 -1 -36 5 -17 6 -30 2 -30 -8 0 -7 -89 2 -97 3 -3 1 -14 -4
-24 -7 -11 -7 -20 0 -24 5 -3 6 -15 1 -28 -5 -12 -5 -34 0 -49 4 -16 4 -28 -1
-28 -5 0 -5 -13 0 -30 5 -17 5 -30 0 -30 -5 0 -5 -13 0 -30 5 -17 5 -30 0 -30
-5 0 -5 -13 0 -30 5 -18 5 -30 0 -30 -6 0 -6 -10 0 -24 5 -13 6 -27 3 -30 -8
-8 -9 -76 -1 -76 4 0 3 -13 -2 -30 -5 -16 -5 -30 -1 -30 4 0 4 -27 1 -60 -3
-33 -3 -60 1 -60 4 0 4 -13 -1 -30 -5 -16 -6 -30 -2 -30 8 0 7 -68 -1 -76 -3
-3 -2 -17 3 -30 6 -14 6 -24 0 -24 -5 0 -5 -12 0 -30 5 -17 5 -30 0 -30 -5 0
-5 -13 0 -30 5 -17 5 -30 0 -30 -5 0 -5 -13 0 -30 5 -17 5 -30 0 -30 -5 0 -5
-12 -1 -28 5 -15 5 -37 0 -49 -5 -13 -4 -25 1 -28 6 -4 7 -13 1 -24 -5 -9 -6
-23 -2 -29 4 -7 4 -35 1 -62 -4 -28 -3 -50 1 -50 4 0 4 -13 -1 -30 -5 -16 -6
-30 -2 -30 8 0 7 -68 -1 -76 -3 -3 -2 -17 3 -30 6 -14 6 -24 0 -24 -5 0 -5
-12 0 -30 5 -17 5 -30 0 -30 -5 0 -5 -13 0 -30 5 -17 5 -30 0 -30 -5 0 -5 -13
0 -30 5 -17 5 -30 0 -30 -5 0 -5 -12 -1 -28 5 -15 5 -37 0 -49 -5 -13 -4 -25
1 -28 6 -4 7 -13 1 -24 -5 -9 -6 -23 -2 -30 5 -7 5 -30 1 -51 -4 -21 -3 -45 2
-53 5 -9 4 -18 -2 -22 -7 -4 -7 -12 0 -24 5 -10 7 -21 3 -25 -8 -8 -10 -76 -1
-76 4 0 3 -13 -2 -30 -5 -16 -5 -30 0 -30 4 0 5 -12 1 -27 -6 -20 -14 -28 -29
-27 -12 0 -22 -3 -22 -8 0 -5 -8 -5 -17 1 -10 5 -26 5 -39 1 -12 -5 -24 -7
-27 -4 -8 9 -77 10 -77 2 0 -5 -8 -5 -17 1 -10 5 -26 5 -39 1 -12 -5 -24 -7
-27 -4 -8 9 -77 10 -77 2 0 -5 -8 -5 -17 1 -10 5 -26 5 -39 1 -12 -5 -24 -7
-27 -4 -8 9 -77 10 -77 2 0 -5 -8 -5 -17 1 -10 5 -26 5 -41 0 -13 -5 -21 -5
-18 0 4 5 -9 6 -28 1 -19 -4 -40 -4 -47 1 -7 4 -20 4 -29 -1 -9 -5 -22 -5 -30
0 -8 5 -21 5 -31 -1 -11 -6 -20 -5 -24 1 -4 6 -15 6 -30 0 -14 -5 -25 -6 -25
-2 0 4 -25 7 -55 7 -30 0 -55 -4 -55 -8 0 -4 -8 -3 -18 2 -10 5 -24 6 -32 1
-8 -5 -21 -5 -30 0 -9 5 -23 4 -32 -1 -10 -6 -19 -6 -23 0 -4 7 -15 7 -30 1
-14 -5 -25 -6 -25 -2 0 4 -41 7 -90 7 -50 0 -90 -4 -90 -8 0 -4 -8 -4 -17 2
-10 5 -26 5 -39 1 -12 -5 -24 -7 -27 -4 -8 9 -77 10 -77 2 0 -5 -8 -5 -17 1
-10 5 -26 5 -39 1 -12 -5 -24 -7 -27 -4 -8 9 -77 10 -77 2 0 -5 -8 -5 -17 1
-10 5 -26 5 -39 1 -12 -5 -24 -7 -27 -4 -8 9 -77 10 -77 2 0 -5 -8 -5 -17 1
-10 5 -26 5 -41 0 -13 -5 -21 -5 -18 0 4 5 -9 6 -28 1 -19 -4 -40 -4 -47 1 -7
4 -20 4 -29 -1 -9 -5 -22 -5 -30 0 -8 5 -21 5 -31 -1 -11 -6 -20 -5 -24 1 -4
6 -15 6 -30 0 -14 -5 -25 -6 -25 -2 0 4 -25 7 -55 7 -30 0 -55 -4 -55 -8 0 -4
-8 -3 -18 2 -10 5 -24 6 -32 1 -8 -5 -21 -5 -30 0 -9 5 -23 4 -32 -1 -10 -6
-19 -6 -23 0 -4 7 -15 7 -30 1 -14 -5 -25 -6 -25 -2 0 4 -41 7 -90 7 -50 0
-90 -4 -90 -8 0 -4 -8 -4 -17 2 -10 5 -26 5 -41 0 -13 -5 -21 -5 -18 -1 5 9
-69 6 -84 -3 -6 -3 -10 -3 -10 2 0 4 -13 8 -30 8 -16 0 -30 -3 -30 -7 0 -4
-11 -3 -24 2 -13 5 -27 6 -30 3 -3 -4 -25 -7 -48 -9 -77 -4 -175 -31 -205 -55
-7 -6 -13 -9 -13 -5 0 16 -121 -72 -175 -127 -53 -54 -123 -156 -124 -180 0
-4 -7 -20 -16 -35 -40 -71 -45 -139 -42 -572 2 -228 6 -422 9 -430 9 -29 27
-95 28 -105 1 -5 9 -18 17 -27 9 -10 13 -18 10 -18 -17 0 65 -113 128 -175
108 -107 239 -168 390 -180 44 -4 83 -9 87 -11 5 -3 8 0 8 6 0 6 5 8 11 4 14
-8 134 -8 148 1 6 3 11 2 11 -4 0 -7 8 -7 25 -1 15 6 27 6 30 0 3 -5 13 -6 22
-3 20 8 81 8 89 1 3 -4 19 -2 35 2 17 5 29 5 29 0 0 -6 10 -6 25 0 15 6 27 6
30 0 3 -6 15 -6 30 0 15 6 27 6 30 0 4 -6 13 -7 24 -1 9 5 23 6 30 1 8 -4 27
-4 42 0 17 5 29 5 29 0 0 -6 10 -6 25 0 15 6 27 6 30 0 3 -6 15 -6 30 0 15 6
27 6 30 0 4 -6 13 -7 24 -1 10 6 23 6 31 1 8 -5 21 -5 31 0 9 5 19 7 22 4 9
-9 97 -10 97 -1 0 5 5 5 11 1 14 -8 134 -8 148 1 6 3 11 2 11 -4 0 -7 8 -7 25
-1 15 6 26 6 30 -1 4 -5 13 -6 22 0 9 5 29 5 45 1 17 -5 28 -5 28 1 0 6 5 7
11 3 14 -8 134 -8 148 1 6 3 11 2 11 -4 0 -7 8 -7 25 -1 15 6 27 6 30 0 3 -5
13 -6 22 -3 20 8 81 8 89 1 3 -4 19 -2 35 2 17 5 29 5 29 0 0 -6 10 -6 25 0
15 6 27 6 30 0 3 -6 15 -6 30 0 15 6 27 6 30 0 4 -6 13 -7 24 -1 9 5 23 6 30
1 8 -4 27 -4 42 0 17 5 29 5 29 0 0 -6 10 -6 25 0 15 6 27 6 30 0 3 -6 15 -6
30 0 15 6 27 6 30 0 4 -6 13 -7 24 -1 10 6 23 6 31 1 8 -5 21 -5 31 0 9 5 19
7 22 4 9 -9 97 -10 97 -1 0 5 5 5 11 1 14 -8 134 -8 148 1 6 3 11 2 11 -4 0
-7 8 -7 25 -1 15 6 26 6 30 -1 4 -5 13 -6 22 0 9 5 29 5 45 1 17 -5 28 -5 28
1 0 6 5 7 11 3 14 -8 134 -8 148 1 6 3 11 2 11 -4 0 -7 8 -7 25 -1 15 6 26 6
30 0 4 -7 13 -6 25 0 13 7 21 7 25 0 3 -5 4 -10 1 -10 -3 0 -1 -11 4 -25 6
-15 6 -27 0 -30 -6 -3 -6 -15 0 -29 5 -13 6 -27 3 -30 -8 -8 -9 -76 -1 -76 4
0 3 -13 -2 -30 -5 -16 -5 -30 -1 -30 4 0 4 -27 1 -60 -3 -33 -3 -60 1 -60 4 0
4 -13 -1 -30 -5 -16 -6 -30 -2 -30 8 0 7 -68 -1 -76 -3 -3 -2 -17 3 -30 6 -14
6 -24 0 -24 -5 0 -5 -12 0 -30 5 -17 5 -30 0 -30 -5 0 -5 -13 0 -30 5 -17 5
-30 0 -30 -5 0 -5 -13 0 -30 5 -17 5 -30 0 -30 -5 0 -5 -12 -1 -28 5 -15 5
-37 0 -49 -5 -13 -4 -25 1 -28 6 -4 7 -13 1 -24 -5 -9 -6 -23 -2 -29 4 -7 4
-35 1 -62 -4 -28 -3 -50 1 -50 4 0 4 -13 -1 -30 -5 -16 -6 -30 -2 -30 8 0 7
-68 -1 -76 -3 -3 -2 -17 3 -30 6 -14 6 -24 0 -24 -5 0 -5 -12 0 -30 5 -17 5
-30 0 -30 -5 0 -5 -13 0 -30 5 -17 5 -30 0 -30 -5 0 -5 -13 0 -30 5 -17 5 -30
0 -30 -5 0 -5 -12 -1 -28 5 -15 5 -37 0 -49 -5 -13 -4 -25 1 -28 6 -4 7 -13 1
-24 -5 -9 -6 -23 -2 -30 5 -7 5 -30 1 -51 -4 -21 -4 -44 1 -51 4 -7 3 -21 -2
-30 -6 -11 -5 -20 1 -24 5 -3 6 -15 1 -28 -5 -12 -5 -34 0 -49 4 -16 4 -28 -1
-28 -5 0 -5 -13 0 -30 5 -17 5 -30 0 -30 -5 0 -5 -13 0 -30 5 -17 5 -30 0 -30
-5 0 -5 -13 0 -30 5 -18 5 -30 0 -30 -6 0 -6 -10 0 -24 5 -13 6 -27 3 -30 -8
-8 -9 -76 -1 -76 4 0 3 -13 -2 -30 -5 -16 -6 -30 -2 -30 8 0 6 -85 -2 -99 -4
-5 -2 -12 3 -16 6 -3 7 -15 1 -29 -4 -12 -5 -29 0 -36 5 -7 5 -23 0 -35 -4
-11 -4 -28 1 -37 6 -10 6 -19 0 -22 -6 -4 -6 -18 -1 -36 5 -17 6 -30 2 -30 -8
0 -7 -84 1 -97 3 -5 2 -15 -3 -23 -5 -8 -5 -21 0 -30 5 -9 5 -22 0 -30 -5 -8
-5 -21 0 -30 5 -9 5 -22 0 -30 -5 -8 -5 -21 0 -30 5 -9 5 -22 0 -30 -5 -8 -5
-21 1 -31 6 -12 5 -20 -1 -24 -6 -4 -8 -11 -4 -16 3 -6 8 -29 10 -52 5 -49 12
-102 14 -102 1 0 3 -8 5 -17 2 -10 22 -56 45 -103 32 -68 58 -103 120 -165 44
-44 84 -80 89 -80 5 0 16 -6 23 -13 20 -19 157 -74 208 -82 98 -17 192 -21
210 -10 6 3 10 2 10 -3 0 -5 16 -6 38 -3 20 4 52 4 70 0 18 -3 34 -3 37 1 3 4
20 5 37 1 33 -7 92 -5 115 4 7 2 15 0 18 -4 3 -5 20 -5 39 -1 19 4 40 4 46 0
7 -4 25 -4 40 0 15 4 33 4 41 0 7 -5 16 -7 20 -4 4 2 42 6 86 9 69 4 106 9
123 15 3 1 10 3 15 4 35 7 171 73 205 101 75 59 153 154 191 229 22 45 41 91
42 104 0 12 4 22 7 22 3 0 7 10 7 23 5 63 14 153 17 163 2 6 0 17 -4 24 -5 8
-4 22 1 31 6 11 5 20 -1 24 -5 3 -6 15 -1 28 5 12 5 34 0 49 -4 16 -4 28 1 28
5 0 5 13 0 30 -5 17 -5 30 0 30 5 0 5 13 0 30 -5 17 -5 30 0 30 5 0 5 13 0 30
-5 18 -5 30 0 30 6 0 6 10 0 24 -5 13 -6 27 -3 30 8 8 9 76 1 76 -4 0 -3 14 2
30 5 17 6 30 2 30 -8 0 -6 85 2 99 4 5 2 12 -3 16 -6 3 -7 15 -1 29 4 12 5 29
0 36 -5 7 -5 23 0 35 4 11 4 28 -1 37 -6 10 -6 19 0 22 6 4 6 18 1 36 -5 17
-6 30 -2 30 4 0 6 21 4 47 -1 27 -3 54 -2 61 0 6 0 19 0 27 0 8 0 22 0 30 0 8
0 22 0 30 0 8 0 22 0 30 0 8 0 22 0 30 0 8 0 22 0 30 0 8 0 22 0 30 0 8 0 22
0 30 0 8 0 22 0 30 0 8 0 22 0 30 0 8 0 22 0 30 0 8 0 22 0 30 0 8 0 22 0 30
0 8 0 22 0 30 0 8 0 22 0 30 0 8 0 22 0 30 0 8 0 21 0 28 0 6 -1 28 -2 47 -1
20 1 43 5 52 3 10 2 20 -3 23 -5 3 -6 15 0 29 4 12 5 29 0 36 -5 7 -5 23 0 35
4 11 4 28 -1 37 -6 10 -6 19 0 22 6 4 6 18 1 36 -5 17 -6 30 -2 30 8 0 7 89
-2 97 -3 3 -1 14 4 24 7 11 7 20 0 24 -5 3 -6 15 -1 28 5 12 5 34 0 49 -4 16
-4 28 1 28 5 0 5 13 0 30 -5 17 -5 30 0 30 5 0 5 13 0 30 -5 17 -5 30 0 30 5
0 5 13 0 30 -5 18 -5 30 0 30 6 0 6 10 0 24 -5 13 -6 27 -3 30 8 8 9 76 1 76
-4 0 -3 14 2 30 5 17 5 30 1 30 -5 0 -7 10 -5 23 7 38 10 157 4 157 -7 0 -4
69 3 76 3 3 2 17 -3 30 -6 14 -6 26 0 29 6 3 6 15 0 31 -8 19 -6 26 5 30 8 3
19 3 25 -1 5 -3 10 -2 10 3 0 6 14 7 35 2 19 -4 35 -4 35 1 0 5 11 4 25 -1 15
-6 25 -6 25 0 0 5 12 5 30 0 17 -5 30 -5 30 0 0 4 12 5 27 1 15 -4 46 -4 70
-1 24 4 43 3 43 -1 0 -5 11 -4 25 1 15 6 27 6 30 0 3 -6 15 -6 30 0 15 6 27 6
30 0 4 -6 13 -7 24 -1 10 6 23 6 31 1 8 -5 21 -5 31 0 9 5 19 7 22 4 9 -9 97
-10 97 -1 0 5 5 5 11 1 14 -8 134 -8 148 1 6 3 11 2 11 -4 0 -7 8 -7 25 -1 15
6 26 6 30 0 4 -6 13 -7 23 -1 25 13 25 13 54 2 17 -6 30 -7 33 -1 3 6 15 6 30
0 16 -6 25 -6 25 0 0 6 9 6 25 0 15 -6 25 -6 25 0 0 5 12 5 28 1 15 -4 39 -4
55 0 15 4 27 3 27 -1 0 -5 12 -5 28 -1 15 5 37 5 49 0 13 -5 25 -4 28 1 3 6
15 6 30 0 15 -6 25 -6 25 0 0 5 12 5 28 1 15 -5 37 -5 49 0 13 5 25 4 28 -1 3
-6 15 -6 30 0 13 5 27 6 29 1 3 -4 26 -5 51 -1 25 4 47 4 50 1 4 -7 95 -4 103
3 2 3 15 1 28 -4 14 -6 26 -6 29 0 3 6 15 6 30 0 15 -6 25 -6 25 0 0 5 12 5
29 0 15 -4 34 -4 42 0 7 5 21 4 30 -1 11 -6 20 -5 24 1 4 7 12 7 24 0 10 -5
21 -7 24 -4 8 9 77 11 77 2 0 -3 14 -3 30 2 16 5 30 5 30 1 0 -4 25 -4 56 -1
30 3 57 4 59 0 4 -6 96 -3 103 4 2 3 15 1 28 -4 14 -6 26 -6 29 0 3 6 15 6 30
0 15 -6 25 -6 25 0 0 5 12 5 29 0 15 -4 34 -4 42 0 7 5 21 4 30 -1 11 -6 20
-5 24 1 4 7 12 7 24 0 10 -5 21 -7 24 -4 8 9 77 11 77 2 0 -3 14 -3 30 2 17 5
30 5 30 0 0 -4 15 -5 33 -1 17 4 44 4 59 0 15 -4 29 -5 31 -2 3 2 34 11 69 19
79 18 79 18 103 31 11 6 23 11 28 12 23 2 117 61 157 99 13 12 27 22 32 22 4
0 8 4 8 10 0 5 16 27 36 47 38 41 111 180 119 228 2 17 9 46 15 65 12 41 8
838 -4 885 -4 17 -9 37 -11 45 -2 8 -4 16 -5 18 -2 1 -3 5 -4 10 -1 4 -10 24
-19 46 -9 21 -17 40 -17 42 0 15 -93 133 -137 173 -54 49 -153 117 -153 104 0
-3 -8 1 -17 10 -10 8 -20 15 -23 15 -3 0 -25 6 -50 13 -64 18 -69 19 -123 23
-26 2 -50 6 -54 9 -3 4 -13 2 -22 -3 -10 -5 -23 -5 -31 0 -8 5 -21 5 -31 -1
-11 -6 -20 -5 -24 1 -4 6 -15 6 -30 0 -14 -5 -25 -6 -25 -2 0 4 -11 7 -25 7
-14 0 -25 -3 -25 -7 0 -4 -13 -3 -30 2 -18 5 -30 5 -30 0 0 -6 -10 -6 -25 0
-15 6 -26 6 -30 0 -4 -6 -13 -7 -23 -1 -11 6 -24 6 -35 0 -11 -7 -17 -7 -17 0
0 6 -11 6 -30 1 -17 -5 -30 -5 -30 0 0 5 -13 5 -30 0 -16 -5 -30 -6 -30 -2 0
8 -122 7 -143 -1 -8 -3 -20 -1 -27 3 -8 5 -22 4 -31 -1 -11 -6 -20 -5 -24 1
-4 6 -15 6 -30 0 -14 -5 -25 -6 -25 -2 0 4 -11 7 -25 7 -14 0 -25 -3 -25 -7 0
-4 -13 -3 -30 2 -18 5 -30 5 -30 0 0 -6 -10 -6 -25 0 -15 6 -26 6 -30 0 -4 -6
-13 -7 -23 -1 -11 6 -24 6 -35 0 -11 -7 -17 -7 -17 0 0 6 -11 6 -30 1 -17 -5
-30 -5 -30 0 0 5 -13 5 -30 0 -16 -5 -30 -6 -30 -2 0 8 -145 6 -166 -2 -8 -3
-14 -1 -14 4 0 5 -13 5 -30 0 -17 -5 -30 -5 -30 0 0 5 -13 5 -30 0 -16 -5 -30
-6 -30 -2 0 8 -118 7 -126 -1 -3 -3 -19 -1 -35 3 -16 5 -29 5 -29 0 0 -5 -13
-5 -30 0 -18 5 -30 5 -30 0 0 -6 -9 -6 -23 -1 -13 5 -30 5 -39 0 -10 -6 -19
-6 -22 0 -4 6 -18 6 -36 1 -17 -5 -30 -6 -30 -2 0 4 -27 7 -60 7 -33 0 -60 -4
-60 -8 0 -4 -8 -4 -17 2 -10 5 -26 5 -39 1 -12 -5 -24 -7 -27 -4 -8 9 -77 10
-77 2 0 -5 -8 -5 -17 1 -10 5 -26 5 -41 0 -13 -5 -21 -5 -18 0 4 5 -9 6 -28 1
-19 -4 -40 -4 -47 1 -7 4 -20 4 -29 -1 -9 -5 -22 -5 -30 0 -8 5 -21 5 -31 -1
-11 -6 -20 -5 -24 1 -4 6 -15 6 -30 0 -14 -5 -25 -6 -25 -2 0 4 -25 7 -55 7
-30 0 -55 -4 -55 -8 0 -4 -8 -3 -18 2 -11 6 -24 6 -34 0 -10 -6 -19 -6 -23 0
-4 7 -15 7 -30 1 -14 -5 -25 -6 -25 -2 0 4 -25 7 -55 7 -30 0 -55 -4 -55 -8 0
-4 -8 -4 -17 1 -10 4 -28 7 -40 7 -15 -2 -22 5 -26 21 -2 13 -1 24 4 24 4 0 4
14 -1 30 -5 17 -5 30 0 30 5 0 5 12 1 28 -5 15 -5 37 0 49 5 13 4 25 -1 28 -6
4 -7 13 -1 24 5 9 6 23 2 30 -5 7 -5 30 -1 51 4 21 4 44 -1 51 -4 7 -3 21 2
30 6 11 5 20 -1 24 -5 3 -6 15 -1 28 5 12 5 34 0 49 -4 16 -4 28 1 28 5 0 5
13 0 30 -5 17 -5 30 0 30 5 0 5 13 0 30 -5 17 -5 30 0 30 5 0 5 13 0 30 -5 18
-5 30 0 30 6 0 6 10 0 24 -5 13 -6 27 -3 30 8 8 9 76 1 76 -4 0 -3 14 2 30 5
17 6 30 2 30 -8 0 -6 85 2 99 4 5 2 12 -3 16 -6 3 -7 15 -1 29 4 12 5 29 0 36
-5 7 -5 23 0 35 4 11 4 28 -1 37 -6 10 -6 19 0 22 6 4 6 18 1 36 -5 17 -6 30
-2 30 4 0 6 21 4 47 -1 27 -3 54 -2 61 0 6 0 19 0 27 0 8 0 22 0 30 0 8 0 22
0 30 0 8 0 22 0 30 0 8 0 22 0 30 0 8 0 22 0 30 0 8 0 22 0 30 0 8 0 22 0 30
0 8 0 22 0 30 0 8 0 22 0 30 0 8 0 22 0 30 0 8 0 22 0 30 0 8 0 22 0 30 0 8 0
22 0 30 0 8 0 22 0 30 0 8 0 22 0 30 0 8 0 21 0 28 0 6 -1 28 -2 47 -1 20 1
43 5 52 3 10 2 20 -3 23 -5 3 -6 15 0 29 4 12 5 29 0 36 -5 7 -5 23 0 35 4 11
4 28 -1 37 -6 10 -6 19 0 22 6 4 6 18 1 36 -5 17 -6 30 -2 30 8 0 7 89 -2 97
-3 3 -1 14 4 24 7 11 7 20 0 24 -5 3 -6 15 -1 28 5 12 5 34 0 49 -4 16 -4 28
1 28 5 0 5 13 0 30 -5 17 -5 30 0 30 5 0 5 13 0 30 -5 17 -5 30 0 30 5 0 5 13
0 30 -5 18 -5 30 0 30 6 0 6 10 0 24 -5 13 -6 27 -3 30 8 8 9 76 1 76 -4 0 -3
14 2 30 5 17 5 30 0 30 -4 0 -4 16 0 34 4 19 5 37 2 40 -3 3 -6 25 -8 48 -1
24 -5 54 -9 68 -3 14 -7 37 -10 52 -11 57 -90 191 -154 259 -35 38 -70 69 -78
69 -7 0 -13 4 -13 9 0 8 -141 85 -165 90 -5 1 -26 6 -46 11 -46 13 -146 22
-224 20 -33 0 -66 -1 -72 -1 -35 1 -145 0 -160 0 -10 0 -62 0 -116 1 -54 0
-102 -2 -107 -5 -6 -3 -10 -3 -10 2 0 8 -119 7 -152 -1 -9 -2 -19 1 -21 7 -2
8 -6 7 -11 -1z"/>
</g>
</svg>
